{
  "customerId": "12345",
  "token": "a7f5c3b7d98ef43e6a5a7c8b9d3e1f6d",
  "notes": [
    {
      "track": 0,
      "note": 25,
      "velocity": 96,
      "start": 235.2891,
      "end": 237.9949,
      "startBar": 69,
      "endBar": 71,
      "startBeat": 276.0,
      "endBeat": 280.0
    },
    {
      "track": 0,
      "note": 12,
      "velocity": 127,
      "start": 235.2891,
      "end": 235.9655,
      "startBar": 69,
      "endBar": 69,
      "startBeat": 276.0,
      "endBeat": 277.0
    },
    {
      "track": 0,
      "note": 31,
      "velocity": 96,
      "start": 235.2891,
      "end": 235.9655,
      "startBar": 69,
      "endBar": 69,
      "startBeat": 276.0,
      "endBeat": 277.0
    },
    {
      "track": 0,
      "note": 108,
      "velocity": 96,
      "start": 235.2891,
      "end": 236.642,
      "startBar": 69,
      "endBar": 70,
      "startBeat": 276.0,
      "endBeat": 278.0
    },
    {
      "track": 0,
      "note": 19,
      "velocity": 127,
      "start": 235.9655,
      "end": 236.642,
      "startBar": 69,
      "endBar": 70,
      "startBeat": 277.0,
      "endBeat": 278.0
    },
    {
      "track": 0,
      "note": 29,
      "velocity": 96,
      "start": 235.9655,
      "end": 237.9949,
      "startBar": 69,
      "endBar": 71,
      "startBeat": 277.0,
      "endBeat": 280.0
    },
    {
      "track": 0,
      "note": 21,
      "velocity": 127,
      "start": 236.642,
      "end": 237.3185,
      "startBar": 70,
      "endBar": 70,
      "startBeat": 278.0,
      "endBeat": 279.0
    },
    {
      "track": 0,
      "note": 2,
      "velocity": 96,
      "start": 236.642,
      "end": 237.3185,
      "startBar": 70,
      "endBar": 70,
      "startBeat": 278.0,
      "endBeat": 279.0
    },
    {
      "track": 0,
      "note": 108,
      "velocity": 96,
      "start": 236.642,
      "end": 237.9273,
      "startBar": 70,
      "endBar": 70,
      "startBeat": 278.0,
      "endBeat": 279.9
    },
    {
      "track": 0,
      "note": 18,
      "velocity": 49,
      "start": 236.642,
      "end": 237.3185,
      "startBar": 70,
      "endBar": 70,
      "startBeat": 278.0,
      "endBeat": 279.0
    },
    {
      "track": 0,
      "note": 17,
      "velocity": 127,
      "start": 237.3185,
      "end": 237.9949,
      "startBar": 70,
      "endBar": 71,
      "startBeat": 279.0,
      "endBeat": 280.0
    },
    {
      "track": 0,
      "note": 33,
      "velocity": 96,
      "start": 237.3185,
      "end": 240.0243,
      "startBar": 70,
      "endBar": 72,
      "startBeat": 279.0,
      "endBeat": 283.0
    },
    {
      "track": 0,
      "note": 28,
      "velocity": 96,
      "start": 237.9949,
      "end": 240.0243,
      "startBar": 71,
      "endBar": 72,
      "startBeat": 280.0,
      "endBeat": 283.0
    },
    {
      "track": 0,
      "note": 14,
      "velocity": 127,
      "start": 237.9949,
      "end": 238.6714,
      "startBar": 71,
      "endBar": 71,
      "startBeat": 280.0,
      "endBeat": 281.0
    },
    {
      "track": 0,
      "note": 108,
      "velocity": 96,
      "start": 237.9949,
      "end": 240.624,
      "startBar": 71,
      "endBar": 72,
      "startBeat": 280.0,
      "endBeat": 283.886
    },
    {
      "track": 0,
      "note": 22,
      "velocity": 49,
      "start": 238.6714,
      "end": 239.3479,
      "startBar": 71,
      "endBar": 72,
      "startBeat": 281.0,
      "endBeat": 282.0
    },
    {
      "track": 0,
      "note": 19,
      "velocity": 127,
      "start": 238.6714,
      "end": 239.3479,
      "startBar": 71,
      "endBar": 72,
      "startBeat": 281.0,
      "endBeat": 282.0
    },
    {
      "track": 0,
      "note": 26,
      "velocity": 96,
      "start": 239.3479,
      "end": 240.7008,
      "startBar": 72,
      "endBar": 73,
      "startBeat": 282.0,
      "endBeat": 284.0
    },
    {
      "track": 0,
      "note": 12,
      "velocity": 127,
      "start": 239.3479,
      "end": 240.0243,
      "startBar": 72,
      "endBar": 72,
      "startBeat": 282.0,
      "endBeat": 283.0
    },
    {
      "track": 0,
      "note": 9,
      "velocity": 96,
      "start": 239.3479,
      "end": 240.0243,
      "startBar": 72,
      "endBar": 72,
      "startBeat": 282.0,
      "endBeat": 283.0
    },
    {
      "track": 0,
      "note": 14,
      "velocity": 127,
      "start": 240.0243,
      "end": 240.7008,
      "startBar": 72,
      "endBar": 73,
      "startBeat": 283.0,
      "endBeat": 284.0
    },
    {
      "track": 0,
      "note": 36,
      "velocity": 96,
      "start": 240.0243,
      "end": 240.7008,
      "startBar": 72,
      "endBar": 73,
      "startBeat": 283.0,
      "endBeat": 284.0
    },
    {
      "track": 0,
      "note": 27,
      "velocity": 96,
      "start": 240.0243,
      "end": 242.0538,
      "startBar": 72,
      "endBar": 74,
      "startBeat": 283.0,
      "endBeat": 286.0
    },
    {
      "track": 0,
      "note": 17,
      "velocity": 127,
      "start": 240.7008,
      "end": 241.3773,
      "startBar": 73,
      "endBar": 73,
      "startBeat": 284.0,
      "endBeat": 285.0
    },
    {
      "track": 0,
      "note": 108,
      "velocity": 96,
      "start": 240.7008,
      "end": 242.7302,
      "startBar": 73,
      "endBar": 74,
      "startBeat": 284.0,
      "endBeat": 287.0
    },
    {
      "track": 0,
      "note": 19,
      "velocity": 127,
      "start": 241.3773,
      "end": 242.0538,
      "startBar": 73,
      "endBar": 74,
      "startBeat": 285.0,
      "endBeat": 286.0
    },
    {
      "track": 0,
      "note": 25,
      "velocity": 96,
      "start": 241.3773,
      "end": 242.0538,
      "startBar": 73,
      "endBar": 74,
      "startBeat": 285.0,
      "endBeat": 286.0
    },
    {
      "track": 0,
      "note": 38,
      "velocity": 96,
      "start": 241.3773,
      "end": 242.7302,
      "startBar": 73,
      "endBar": 74,
      "startBeat": 285.0,
      "endBeat": 287.0
    },
    {
      "track": 0,
      "note": 13,
      "velocity": 49,
      "start": 242.0538,
      "end": 242.7302,
      "startBar": 74,
      "endBar": 74,
      "startBeat": 286.0,
      "endBeat": 287.0
    },
    {
      "track": 0,
      "note": 12,
      "velocity": 127,
      "start": 242.0538,
      "end": 242.7302,
      "startBar": 74,
      "endBar": 74,
      "startBeat": 286.0,
      "endBeat": 287.0
    },
    {
      "track": 1,
      "note": 74,
      "velocity": 127,
      "start": 235.9655,
      "end": 236.642,
      "startBar": 69,
      "endBar": 70,
      "startBeat": 277.0,
      "endBeat": 278.0
    },
    {
      "track": 2,
      "note": 71,
      "velocity": 127,
      "start": 236.642,
      "end": 237.3185,
      "startBar": 70,
      "endBar": 70,
      "startBeat": 278.0,
      "endBeat": 279.0
    },
    {
      "track": 4,
      "note": 57,
      "velocity": 127,
      "start": 242.0538,
      "end": 242.7302,
      "startBar": 74,
      "endBar": 74,
      "startBeat": 286.0,
      "endBeat": 287.0
    },
    {
      "track": 3,
      "note": 61,
      "velocity": 127,
      "start": 237.9949,
      "end": 238.6714,
      "startBar": 71,
      "endBar": 71,
      "startBeat": 280.0,
      "endBeat": 281.0
    }
  ]
}
